HIERARCHY
ROOT Hips
{
  OFFSET 105.34 56.4589 360.273
  CHANNELS 6 Xposition Yposition Zposition Zrotation Xrotation Yrotation
  JOINT RightUpLeg
  {
    OFFSET -8.9458 -8.66707 0.101652
    CHANNELS 3 Zrotation Xrotation Yrotation
    JOINT RightLeg
    {
      OFFSET 0 -44.4227 1.3727
      CHANNELS 3 Zrotation Xrotation Yrotation
      JOINT RightFoot
      {
        OFFSET 0.253549 -42.0924 -1.46059
        CHANNELS 3 Zrotation Xrotation Yrotation
        JOINT RightToes
        {
          OFFSET 0.04 -4.41509 8.4991
          CHANNELS 3 Zrotation Xrotation Yrotation
          End Site
          {
            OFFSET -0.08 -0.137448 9.77979
          }
        }
      }
    }
  }
  JOINT Spine
  {
    OFFSET 0 11.8905 0
    CHANNELS 3 Zrotation Xrotation Yrotation
    JOINT Spine1
    {
      OFFSET 0 25.6574 0.127663
      CHANNELS 3 Zrotation Xrotation Yrotation
      JOINT HEad
      {
        OFFSET 0 8.73416 0.011341
        CHANNELS 3 Zrotation Xrotation Yrotation
        End Site
        {
          OFFSET -0.29 12.7742 2.51395
        }
      }
      JOINT LeftShoulder1
      {
        OFFSET 8.99 -0.362252 -0.22
        CHANNELS 3 Zrotation Xrotation Yrotation
        JOINT LeftArm
        {
          OFFSET 10.2827 -0.00338 0.322123
          CHANNELS 3 Zrotation Xrotation Yrotation
          JOINT LeftForeArm
          {
            OFFSET 32.7669 0.099144 -1.42434
            CHANNELS 3 Zrotation Xrotation Yrotation
            JOINT LeftHand
            {
              OFFSET 27.5643 0.085362 1.02216
              CHANNELS 3 Zrotation Xrotation Yrotation
              End Site
              {
                OFFSET 16.7443 -0.6 1.50291
              }
            }
          }
        }
      }
      JOINT RightShoulder
      {
        OFFSET -8.99 -0.362252 -0.22
        CHANNELS 3 Zrotation Xrotation Yrotation
        JOINT RightArm
        {
          OFFSET -10.2827 -0.00338 0.322123
          CHANNELS 3 Zrotation Xrotation Yrotation
          JOINT RightForeArm
          {
            OFFSET -32.8971 0.099144 -1.42434
            CHANNELS 3 Zrotation Xrotation Yrotation
            JOINT RightHand
            {
              OFFSET -27.4921 0.085362 1.02216
              CHANNELS 3 Zrotation Xrotation Yrotation
              End Site
              {
                OFFSET -16.6312 -0.6 1.50291
              }
            }
          }
        }
      }
    }
  }
  JOINT LeftUpLeg
  {
    OFFSET 8.9458 -8.66707 0.101652
    CHANNELS 3 Zrotation Xrotation Yrotation
    JOINT LeftLeg
    {
      OFFSET 0 -44.4227 1.3727
      CHANNELS 3 Zrotation Xrotation Yrotation
      JOINT LeftFoot
      {
        OFFSET -0.253549 -42.0924 -1.46059
        CHANNELS 3 Zrotation Xrotation Yrotation
        JOINT LeftToes
        {
          OFFSET -0.04 -4.41509 8.4991
          CHANNELS 3 Zrotation Xrotation Yrotation
          End Site
          {
            OFFSET 0.08 -0.047448 9.77979
          }
        }
      }
    }
  }
}
MOTION
Frames:	12
Frame Time:	0.0166667
0	103.758	0	1.6507	2.78992	158	0.204601	0.315117	-21.1687	2.1923	13.1294	-11.1804	2.07962	-9.31537	-4.07216	4.62E-02	5.34E-04	0.662642	-0.0958507	-2.88152	-0.638725	-0.224344	-5.75901	-1.28496	2.52516	21.7715	12.9236	7.95E-16	0.00E+00	3.18E-15	-1.12033	-15.4399	-10.4373	1.57402	10.05	-8.46723	-5.90468	9.7731	4.09857	7.95E-16	0.00E+00	3.18E-15	-3.18136	-18.4024	1.1261	-0.876282	13.3161	-4.12963	6.33481	13.7918	-5.04168	-4.87E+00	4.06E+00	-16.2108	6.8039	11.8824	-31.382	-3.21009	-15.3076	-6.36275	1.51E-14	3.10E-14	9.54E-15
0.015	103.761	-0.001	1.64776	2.789	158.011	0.215259	0.320245	-21.172	2.18999	13.1187	-11.1876	2.07353	-9.30611	-4.03803	4.62E-02	5.34E-04	6.63E-01	-0.0981766	-2.88137	-0.63697	-0.228914	-5.75868	-1.28156	2.5078	21.7709	12.9547	0.00E+00	0.00E+00	3.18E-15	-1.12817	-15.4345	-10.4336	1.56359	10.0613	-8.45855	-5.91038	9.77518	4.09906	0.00E+00	0.00E+00	3.18E-15	-3.18766	-18.3755	1.11545	-0.859083	13.3111	-4.13653	6.32788	13.805	-5.03585	-4.87E+00	4.07058	-1.62E+01	6.81819	11.8616	-31.4187	-3.21948	-15.2985	-6.37045	1.59E-14	3.20E-14	6.36E-15
0.029	103.764	-0.003	1.64411	2.78392	158.024	0.225891	0.322402	-21.1688	2.18985	13.1065	-11.2002	2.07033	-9.30178	-4.10951	4.62E-02	5.34E-04	6.63E-01	-0.100388	-2.88101	-0.635406	-0.233396	-5.75784	-1.28011	2.49288	21.7657	12.981	1.59E-15	1.59E-15	6.36E-15	-1.12916	-15.433	-10.4358	1.55713	10.0602	-8.43938	-5.93432	9.78521	4.10735	1.59E-15	1.59E-15	6.36E-15	-3.18465	-18.3555	1.10745	-0.838224	13.2984	-4.14493	6.32611	13.8103	-5.04103	-4.86E+00	4.07614	-16.1573	6.83077	11.8438	-31.4591	-3.23173	-15.2941	-6.31686	1.51E-14	3.02E-14	6.36E-15
0.046	103.767	-0.005	1.6399	2.77591	158.032	0.230919	0.324155	-21.1633	2.19156	13.0948	-11.2185	2.07044	-9.29035	-4.02013	4.62E-02	5.34E-04	6.63E-01	-0.101498	-2.88071	-0.633868	-0.235204	-5.75677	-1.27934	2.46348	21.7775	13.0123	0.00E+00	0.00E+00	-6.36E-15	-1.12282	-15.4347	-10.4164	1.54023	10.0562	-8.42471	-5.9757	9.79499	4.11201	0.00E+00	0.00E+00	-6.36E-15	-3.1901	-18.3305	1.12737	-0.812676	13.295	-4.15517	6.33468	13.8042	-5.05259	-4.86E+00	4.08E+00	-1.61E+01	6.84516	11.8294	-31.5033	-3.25135	-15.2809	-6.31676	1.51E-14	3.28E-14	6.36E-15
0.055	103.77	-0.007	1.63789	2.77305	158.042	0.238575	0.326128	-21.1614	2.19444	13.0872	-11.237	2.06895	-9.28084	-4.00097	4.62E-02	5.34E-04	6.63E-01	-0.10248	-2.88044	-0.632439	-0.235705	-5.75563	-1.2775	2.42306	21.7947	13.0438	7.95E-16	0.00E+00	0.00E+00	-1.13514	-15.4393	-10.3902	1.53826	10.0564	-8.42533	-6.00178	9.80371	4.13289	7.95E-16	0.00E+00	0.00E+00	-3.20756	-18.3045	1.13299	-0.784578	13.2916	-4.16643	6.36716	13.8203	-5.05466	-4.86256	4.08056	-1.61E+01	6.86881	11.8177	-31.5413	-3.27075	-15.2654	-6.31364	1.59E-14	3.10E-14	6.36E-15
0.063	103.773	-0.008	1.63546	2.76874	158.053	0.24146	0.327491	-21.1684	2.1949	13.0818	-11.2427	2.06929	-9.27204	-4.01839	4.62E-02	5.34E-04	6.63E-01	-0.103343	-2.88017	-0.6312	-0.23576	-5.75452	-1.27292	2.39554	21.7998	13.0617	-1.59E-15	0.00E+00	-3.18E-15	-1.1542	-15.448	-10.3905	1.5386	10.0795	-8.41064	-5.99765	9.79367	4.13335	-1.59E-15	0.00E+00	-3.18E-15	-3.20851	-18.2866	1.11017	-0.779296	13.2946	-4.16854	6.40519	13.8396	-5.06584	-4.87E+00	4.09E+00	-1.61E+01	6.88993	11.8036	-31.5948	-3.28883	-15.2474	-6.27817	1.51E-14	3.10E-14	6.36E-15
0.068	103.778	-0.01	1.63366	2.76544	158.061	0.24698	0.327425	-21.1861	2.1934	13.075	-11.2408	2.07132	-9.25858	-4.03817	4.62E-02	5.34E-04	6.63E-01	-0.104099	-2.87988	-0.630231	-0.236069	-5.75348	-1.26839	2.40705	21.8017	13.0679	7.95E-16	0.00E+00	-3.18E-15	-1.13137	-15.453	-10.3835	1.53045	10.1039	-8.40357	-6.01382	9.79083	4.14042	7.95E-16	0.00E+00	-3.18E-15	-3.17704	-18.2861	1.08891	-0.788825	13.3042	-4.1697	6.41218	13.8426	-5.07291	-4.88E+00	4.09E+00	-1.61E+01	6.92227	11.7904	-31.646	-3.31399	-15.2242	-6.26043	1.43E-14	3.22E-14	6.36E-15
0.076	103.782	-0.011	1.63078	2.75915	158.066	0.251553	0.32516	-21.1929	2.19174	13.0665	-11.2399	2.07148	-9.24476	-4.05405	4.62E-02	5.34E-04	6.63E-01	-0.104749	-2.87952	-0.629455	-0.236224	-5.75244	-1.2625	2.432	21.8078	13.0733	-1.77E-31	1.59E-15	6.36E-15	-1.10021	-15.4327	-10.3706	1.52423	10.0922	-8.39941	-6.02733	9.81486	4.14761	-1.77E-31	1.59E-15	6.36E-15	-3.14217	-18.2854	1.0778	-0.795835	13.3223	-4.17056	6.38898	13.8305	-5.07158	-4.88E+00	4.09E+00	-1.61E+01	6.94532	11.7787	-31.6842	-3.34013	-15.1958	-6.28068	1.59E-14	3.16E-14	6.36E-15
0.085	103.787	-0.013	1.62505	2.74615	158.071	0.250707	0.317347	-21.1864	2.19439	13.0652	-11.2515	2.07445	-9.22906	-3.95843	4.62E-02	5.34E-04	6.63E-01	-0.105295	-2.87909	-0.628739	-0.23637	-5.7515	-1.25676	2.44691	21.8154	13.0825	7.95E-16	0.00E+00	0.00E+00	-1.07851	-15.4239	-10.3558	1.51459	10.0506	-8.39265	-6.01457	9.8169	4.14823	7.95E-16	0.00E+00	0.00E+00	-3.13792	-18.2774	1.0646	-0.783619	13.3302	-4.17096	6.37865	13.8243	-5.06964	-4.89E+00	4.08E+00	-16.065	6.95656	11.7734	-31.6914	-3.35455	-15.1827	-6.2015	1.59E-14	3.12E-14	3.18E-15
0.089	103.79	-0.014	1.62047	2.7365	158.079	0.253642	0.301108	-21.1742	2.19855	13.062	-11.2706	2.07676	-9.22289	-4.0006	4.62E-02	5.34E-04	6.63E-01	-0.105741	-2.87853	-0.628083	-0.23672	-5.75057	-1.2534	2.44484	21.8251	13.1049	7.95E-16	1.59E-15	3.18E-15	-1.06671	-15.4289	-10.3405	1.50406	9.99649	-8.38691	-6.01831	9.81082	4.14633	7.95E-16	1.59E-15	3.18E-15	-3.14605	-18.2658	1.05616	-0.772672	13.3296	-4.17108	6.40996	13.8276	-5.07371	-4.89E+00	4.08E+00	-1.61E+01	6.96583	11.7692	-31.697	-3.3786	-15.1617	-6.20741	1.59E-14	3.14E-14	9.54E-15
0.098	103.793	-0.007	1.61491	2.72523	158.083	0.253026	0.296839	-21.1698	2.20002	13.0586	-11.2781	2.0803	-9.21143	-3.91004	4.62E-02	5.34E-04	6.63E-01	-0.106095	-2.87784	-0.627485	-0.237223	-5.74955	-1.25202	2.43927	21.8407	13.1282	-7.95E-16	-1.59E-15	0.00E+00	-1.05465	-15.4367	-10.3188	1.5009	9.97119	-8.3925	-6.04443	9.81566	4.14684	-7.95E-16	-1.59E-15	0.00E+00	-3.16826	-18.2402	1.06013	-0.753074	13.3378	-4.17125	6.46187	13.8311	-5.09264	-4.89E+00	4.07E+00	-1.61E+01	6.96864	11.7637	-31.7042	-3.39751	-15.1471	-6.18253	1.43E-14	3.32E-14	6.36E-15
0.101	103.794	-0.011	1.61133	2.71958	158.091	0.250744	0.289886	-21.1781	2.19961	13.0553	-11.2771	2.07721	-9.20341	-3.88685	4.62E-02	5.34E-04	0.662642	-0.106364	-2.87697	-0.626945	-0.23771	-5.74834	-1.25103	2.43312	21.8579	13.1432	1.59E-15	0.00E+00	-3.18E-15	-1.05084	-15.4455	-10.3108	1.50577	9.99291	-8.39091	-6.066	9.83233	4.15363	1.59E-15	0.00E+00	-3.18E-15	-3.18822	-18.22	1.06598	-0.745251	13.3637	-4.17157	6.49961	13.8393	-5.10252	-4.89E+00	4.07E+00	-1.61E+01	6.97506	11.756	-31.7257	-3.41081	-15.1389	-6.13372	1.67E-14	3.26E-14	3.18E-15
